<?xml version="1.0" standalone="yes"?>

<svg version="1.1" viewBox="0.0 0.0 370.62467191601047 371.2755905511811" fill="none" stroke="none" stroke-linecap="square" stroke-miterlimit="10" xmlns="http://www.w3.org/2000/svg" xmlns:xlink="http://www.w3.org/1999/xlink"><clipPath id="p.0"><path d="m0 0l370.62466 0l0 371.2756l-370.62466 0l0 -371.2756z" clip-rule="nonzero"></path></clipPath><g clip-path="url(#p.0)"><path fill="#000000" fill-opacity="0.0" d="m0 0l370.62466 0l0 371.2756l-370.62466 0z" fill-rule="nonzero"></path><path fill="#ff00ff" d="m0.9973753 185.6378l0 0c0 -101.79435 82.52062 -184.31497 184.31496 -184.31497l0 0c48.883377 0 95.7646 19.418842 130.33037 53.984604c34.565765 34.56576 53.98459 81.44699 53.98459 130.33037l0 0c0 101.79433 -82.5206 184.31496 -184.31496 184.31496l0 0c-101.794334 0 -184.31496 -82.52063 -184.31496 -184.31496z" fill-rule="nonzero"></path><path stroke="#a4c2f4" stroke-width="1.0" stroke-linejoin="round" stroke-linecap="butt" d="m0.9973753 185.6378l0 0c0 -101.79435 82.52062 -184.31497 184.31496 -184.31497l0 0c48.883377 0 95.7646 19.418842 130.33037 53.984604c34.565765 34.56576 53.98459 81.44699 53.98459 130.33037l0 0c0 101.79433 -82.5206 184.31496 -184.31496 184.31496l0 0c-101.794334 0 -184.31496 -82.52063 -184.31496 -184.31496z" fill-rule="nonzero"></path><path fill="#d182ff" fill-opacity="0.8115" d="m44.30116 185.62924l0 0c0 -77.88519 63.13843 -141.02362 141.02362 -141.02362l0 0c37.401794 0 73.27171 14.857803 99.718765 41.304863c26.447052 26.44706 41.30487 62.316963 41.30487 99.71876l0 0c0 77.88519 -63.138428 141.02362 -141.02364 141.02362l0 0c-77.88519 0 -141.02362 -63.138428 -141.02362 -141.02362z" fill-rule="nonzero"></path><path fill="#ff1abd" fill-opacity="0.8115" d="m355.91196 185.61511l-68.84357 24.482391l0 -48.964783zm-49.979034 -120.6352l-31.359161 65.997826l-34.622864 -34.622864zm-120.6194 -49.96322l24.482391 68.84355l-48.964783 0zm-120.6352 49.96322l65.997826 31.374962l-34.622864 34.622864zm-49.963223 120.6352l68.84355 -24.482391l0 48.964783zm49.963223 120.619415l31.374962 -65.98204l34.622864 34.62288zm120.6352 49.979004l-24.482391 -68.84354l48.964783 0zm120.6194 -49.979004l-65.982025 -31.359161l34.622864 -34.62288zm-205.91861 -120.619415l0 0c0 -47.10945 38.18976 -85.29921 85.29921 -85.29921c47.10945 0 85.29921 38.18976 85.29921 85.29921c0 47.10945 -38.18976 85.299225 -85.29921 85.299225c-47.10945 0 -85.29921 -38.189774 -85.29921 -85.299225z" fill-rule="nonzero"></path><path stroke="#ff00ff" stroke-width="1.0" stroke-linejoin="round" stroke-linecap="butt" d="m355.91196 185.61511l-68.84357 24.482391l0 -48.964783zm-49.979034 -120.6352l-31.359161 65.997826l-34.622864 -34.622864zm-120.6194 -49.96322l24.482391 68.84355l-48.964783 0zm-120.6352 49.96322l65.997826 31.374962l-34.622864 34.622864zm-49.963223 120.6352l68.84355 -24.482391l0 48.964783zm49.963223 120.619415l31.374962 -65.98204l34.622864 34.62288zm120.6352 49.979004l-24.482391 -68.84354l48.964783 0zm120.6194 -49.979004l-65.982025 -31.359161l34.622864 -34.62288zm-205.91861 -120.619415l0 0c0 -47.10945 38.18976 -85.29921 85.29921 -85.29921c47.10945 0 85.29921 38.18976 85.29921 85.29921c0 47.10945 -38.18976 85.299225 -85.29921 85.299225c-47.10945 0 -85.29921 -38.189774 -85.29921 -85.299225z" fill-rule="nonzero"></path><path fill="#674ea7" fill-opacity="0.5038" d="m305.97583 235.58963l-55.86055 -2.8420258l14.337326 -34.631973zm-0.026245117 -99.957565l-41.504578 37.496902l-14.350281 -34.626053zm-70.6824 -70.65661l-2.8420258 55.860565l-34.631973 -14.337334zm-99.95294 0.015075684l37.492294 41.515747l-34.62607 14.350288zm-70.66123 70.69358l55.860565 2.8420258l-14.337334 34.631973zm0.019706726 99.94177l41.511124 -37.48111l14.350288 34.626053zm70.688965 70.67239l2.8420105 -55.86055l34.63199 14.337326zm99.946396 -0.030853271l-37.48575 -41.49997l34.62607 -14.350281zm-110.324356 -145.60693l0 0c13.794067 -33.319725 51.98735 -49.1484 85.30708 -35.354332c33.319733 13.794075 49.148407 51.98736 35.35434 85.30709c-13.794083 33.319733 -51.987366 49.148407 -85.3071 35.354324c-33.319725 -13.794067 -49.1484 -51.98735 -35.354324 -85.30708z" fill-rule="nonzero"></path><path stroke="#ff00ff" stroke-width="1.0" stroke-linejoin="round" stroke-linecap="butt" d="m305.97583 235.58963l-55.86055 -2.8420258l14.337326 -34.631973zm-0.026245117 -99.957565l-41.504578 37.496902l-14.350281 -34.626053zm-70.6824 -70.65661l-2.8420258 55.860565l-34.631973 -14.337334zm-99.95294 0.015075684l37.492294 41.515747l-34.62607 14.350288zm-70.66123 70.69358l55.860565 2.8420258l-14.337334 34.631973zm0.019706726 99.94177l41.511124 -37.48111l14.350288 34.626053zm70.688965 70.67239l2.8420105 -55.86055l34.63199 14.337326zm99.946396 -0.030853271l-37.48575 -41.49997l34.62607 -14.350281zm-110.324356 -145.60693l0 0c13.794067 -33.319725 51.98735 -49.1484 85.30708 -35.354332c33.319733 13.794075 49.148407 51.98736 35.35434 85.30709c-13.794083 33.319733 -51.987366 49.148407 -85.3071 35.354324c-33.319725 -13.794067 -49.1484 -51.98735 -35.354324 -85.30708z" fill-rule="nonzero"></path><path fill="#e527b7" d="m270.16663 185.62332l-34.24066 12.176788l0 -24.353577zm-24.858017 -60.00023l-15.597092 32.825287l-17.220337 -17.220352zm-59.99237 -24.850166l12.176788 34.240654l-24.353577 0zm-60.000237 24.850166l32.825294 15.604935l-17.220352 17.220352zm-24.850166 60.00023l34.24066 -12.176788l0 24.353577zm24.850166 59.99237l15.604942 -32.81743l17.220352 17.220352zm60.000237 24.858032l-12.176788 -34.240677l24.353577 0zm59.99237 -24.858032l-32.81743 -15.597076l17.220337 -17.220352zm-102.41757 -59.99237l0 0c0 -23.430786 18.9944 -42.4252 42.4252 -42.4252c23.430786 0 42.425186 18.994415 42.425186 42.4252c0 23.430786 -18.9944 42.4252 -42.425186 42.4252c-23.430801 0 -42.4252 -18.994415 -42.4252 -42.4252z" fill-rule="nonzero"></path><path stroke="#ff00ff" stroke-width="1.0" stroke-linejoin="round" stroke-linecap="butt" d="m270.16663 185.62332l-34.24066 12.176788l0 -24.353577zm-24.858017 -60.00023l-15.597092 32.825287l-17.220337 -17.220352zm-59.99237 -24.850166l12.176788 34.240654l-24.353577 0zm-60.000237 24.850166l32.825294 15.604935l-17.220352 17.220352zm-24.850166 60.00023l34.24066 -12.176788l0 24.353577zm24.850166 59.99237l15.604942 -32.81743l17.220352 17.220352zm60.000237 24.858032l-12.176788 -34.240677l24.353577 0zm59.99237 -24.858032l-32.81743 -15.597076l17.220337 -17.220352zm-102.41757 -59.99237l0 0c0 -23.430786 18.9944 -42.4252 42.4252 -42.4252c23.430786 0 42.425186 18.994415 42.425186 42.4252c0 23.430786 -18.9944 42.4252 -42.425186 42.4252c-23.430801 0 -42.4252 -18.994415 -42.4252 -42.4252z" fill-rule="nonzero"></path></g></svg>

